<?xml version="1.0" encoding="UTF-8" standalone="no"?>
<!DOCTYPE svg PUBLIC "-//W3C//DTD SVG 1.1//EN" "http://www.w3.org/Graphics/SVG/1.1/DTD/svg11.dtd">
<svg width="100%" height="100%" viewBox="0 0 489 66" version="1.1" xmlns="http://www.w3.org/2000/svg" xmlns:xlink="http://www.w3.org/1999/xlink" xml:space="preserve" xmlns:serif="http://www.serif.com/" style="fill-rule:evenodd;clip-rule:evenodd;stroke-linejoin:round;stroke-miterlimit:2;">
    <g transform="matrix(64,0,0,64,-4.928,46.72)">
        <path d="M0.774,-0.255L0.694,-0.255L0.694,-0.028L0.682,-0.028C0.675,-0.035 0.669,-0.04 0.664,-0.043C0.659,-0.046 0.652,-0.047 0.642,-0.047C0.63,-0.047 0.618,-0.044 0.606,-0.038C0.593,-0.031 0.579,-0.024 0.563,-0.016C0.546,-0.008 0.527,-0.001 0.505,0.006C0.483,0.012 0.456,0.015 0.425,0.015C0.378,0.015 0.336,0.007 0.299,-0.009C0.262,-0.024 0.227,-0.049 0.193,-0.083C0.16,-0.116 0.132,-0.156 0.11,-0.201C0.088,-0.246 0.077,-0.297 0.077,-0.354C0.077,-0.392 0.081,-0.426 0.09,-0.457C0.099,-0.487 0.109,-0.513 0.122,-0.536C0.134,-0.559 0.147,-0.578 0.16,-0.593C0.172,-0.608 0.183,-0.62 0.192,-0.629C0.222,-0.659 0.256,-0.683 0.295,-0.702C0.334,-0.721 0.378,-0.73 0.427,-0.73C0.452,-0.73 0.473,-0.728 0.49,-0.724C0.506,-0.72 0.52,-0.716 0.532,-0.711C0.544,-0.706 0.555,-0.701 0.565,-0.697C0.574,-0.693 0.585,-0.691 0.597,-0.691C0.61,-0.691 0.62,-0.693 0.626,-0.697C0.631,-0.7 0.637,-0.705 0.642,-0.712L0.657,-0.712L0.657,-0.512L0.646,-0.512C0.643,-0.529 0.638,-0.55 0.631,-0.573C0.623,-0.596 0.611,-0.619 0.595,-0.64C0.578,-0.661 0.557,-0.679 0.53,-0.694C0.502,-0.709 0.468,-0.716 0.426,-0.716C0.376,-0.716 0.336,-0.705 0.306,-0.685C0.275,-0.664 0.252,-0.636 0.235,-0.602C0.218,-0.567 0.206,-0.528 0.201,-0.485C0.195,-0.442 0.192,-0.398 0.192,-0.354C0.192,-0.324 0.193,-0.294 0.196,-0.264C0.199,-0.234 0.203,-0.206 0.21,-0.179C0.216,-0.152 0.225,-0.128 0.236,-0.105C0.247,-0.082 0.262,-0.063 0.28,-0.047C0.3,-0.029 0.321,-0.017 0.342,-0.01C0.363,-0.003 0.391,0.001 0.425,0.001C0.446,0.001 0.466,-0.003 0.487,-0.01C0.508,-0.017 0.526,-0.027 0.543,-0.041C0.559,-0.055 0.572,-0.073 0.583,-0.095C0.593,-0.116 0.598,-0.142 0.598,-0.171L0.598,-0.255L0.469,-0.255L0.469,-0.269L0.774,-0.269L0.774,-0.255Z" style="fill:rgb(255,214,0);fill-rule:nonzero;"/>
    </g>
    <g transform="matrix(64,0,0,64,46.016,46.72)">
        <path d="M0.303,-0.245L0.301,-0.245C0.3,-0.236 0.289,-0.228 0.268,-0.219L0.193,-0.189C0.172,-0.18 0.155,-0.168 0.144,-0.153C0.133,-0.137 0.127,-0.117 0.127,-0.094C0.127,-0.084 0.128,-0.074 0.13,-0.063C0.132,-0.052 0.136,-0.043 0.141,-0.035C0.146,-0.026 0.154,-0.019 0.164,-0.014C0.173,-0.009 0.186,-0.006 0.201,-0.006C0.223,-0.006 0.241,-0.011 0.255,-0.02C0.268,-0.029 0.279,-0.041 0.286,-0.055C0.293,-0.069 0.297,-0.084 0.3,-0.101C0.302,-0.117 0.303,-0.132 0.303,-0.145L0.303,-0.245ZM0.478,-0.011C0.469,-0.004 0.459,0.002 0.447,0.007C0.435,0.012 0.42,0.014 0.403,0.014C0.371,0.014 0.348,0.007 0.334,-0.007C0.319,-0.02 0.309,-0.039 0.304,-0.064L0.302,-0.064C0.299,-0.058 0.296,-0.05 0.291,-0.042C0.286,-0.033 0.279,-0.024 0.27,-0.016C0.26,-0.007 0.247,-0 0.231,0.006C0.215,0.011 0.195,0.014 0.17,0.014C0.142,0.014 0.12,0.011 0.103,0.005C0.086,-0.002 0.073,-0.01 0.064,-0.019C0.055,-0.028 0.049,-0.039 0.046,-0.051C0.043,-0.062 0.041,-0.073 0.041,-0.083C0.041,-0.106 0.046,-0.125 0.055,-0.139C0.064,-0.153 0.077,-0.164 0.092,-0.173C0.107,-0.181 0.123,-0.188 0.142,-0.193C0.16,-0.198 0.178,-0.204 0.197,-0.21C0.219,-0.217 0.237,-0.224 0.252,-0.229C0.266,-0.234 0.277,-0.241 0.285,-0.249C0.293,-0.256 0.299,-0.266 0.302,-0.278C0.305,-0.289 0.306,-0.305 0.306,-0.325C0.306,-0.341 0.305,-0.355 0.303,-0.368C0.301,-0.381 0.297,-0.392 0.292,-0.401C0.287,-0.41 0.279,-0.416 0.269,-0.421C0.259,-0.426 0.246,-0.428 0.229,-0.428C0.207,-0.428 0.189,-0.424 0.175,-0.417C0.16,-0.409 0.153,-0.396 0.153,-0.379C0.153,-0.368 0.154,-0.357 0.156,-0.346C0.158,-0.335 0.159,-0.326 0.159,-0.321C0.159,-0.312 0.156,-0.304 0.149,-0.298C0.142,-0.291 0.133,-0.288 0.12,-0.288C0.098,-0.288 0.084,-0.292 0.079,-0.3C0.074,-0.308 0.071,-0.318 0.071,-0.331C0.071,-0.346 0.074,-0.36 0.081,-0.373C0.088,-0.386 0.097,-0.398 0.111,-0.409C0.124,-0.419 0.14,-0.427 0.16,-0.433C0.179,-0.439 0.202,-0.442 0.227,-0.442C0.258,-0.442 0.283,-0.438 0.304,-0.431C0.325,-0.423 0.341,-0.413 0.354,-0.4C0.367,-0.387 0.376,-0.372 0.381,-0.356C0.386,-0.339 0.389,-0.322 0.389,-0.304L0.389,-0.055C0.389,-0.036 0.392,-0.023 0.398,-0.016C0.404,-0.009 0.413,-0.006 0.424,-0.006C0.431,-0.006 0.439,-0.007 0.447,-0.01C0.455,-0.013 0.463,-0.017 0.47,-0.022L0.478,-0.011Z" style="fill:rgb(255,214,0);fill-rule:nonzero;"/>
    </g>
    <g transform="matrix(64,0,0,64,76.8,46.72)">
        <path d="M0.027,-0.014L0.104,-0.014L0.104,-0.415L0.027,-0.415L0.027,-0.429L0.188,-0.429L0.188,-0.328L0.19,-0.328C0.193,-0.338 0.197,-0.349 0.203,-0.362C0.209,-0.375 0.217,-0.387 0.228,-0.399C0.239,-0.41 0.252,-0.42 0.267,-0.428C0.282,-0.436 0.3,-0.44 0.321,-0.44C0.336,-0.44 0.35,-0.438 0.361,-0.433C0.372,-0.428 0.382,-0.421 0.389,-0.414C0.396,-0.406 0.402,-0.397 0.405,-0.387C0.408,-0.377 0.41,-0.367 0.41,-0.357C0.41,-0.335 0.405,-0.32 0.395,-0.313C0.385,-0.306 0.373,-0.302 0.36,-0.302C0.331,-0.302 0.316,-0.311 0.316,-0.33C0.316,-0.336 0.317,-0.341 0.318,-0.345C0.319,-0.348 0.321,-0.352 0.323,-0.356C0.324,-0.359 0.326,-0.363 0.327,-0.368C0.328,-0.373 0.329,-0.379 0.329,-0.388C0.329,-0.409 0.317,-0.42 0.294,-0.42C0.283,-0.42 0.272,-0.416 0.26,-0.408C0.248,-0.4 0.237,-0.388 0.227,-0.373C0.216,-0.358 0.208,-0.339 0.201,-0.318C0.194,-0.296 0.19,-0.271 0.19,-0.243L0.19,-0.014L0.277,-0.014L0.277,-0L0.027,-0L0.027,-0.014Z" style="fill:rgb(255,214,0);fill-rule:nonzero;"/>
    </g>
    <g transform="matrix(64,0,0,64,102.848,46.72)">
        <path d="M0.194,0.03C0.185,0.035 0.177,0.041 0.168,0.047C0.159,0.052 0.151,0.059 0.144,0.068C0.137,0.077 0.131,0.087 0.127,0.099C0.122,0.11 0.12,0.125 0.12,0.142C0.12,0.166 0.124,0.186 0.133,0.202C0.141,0.217 0.152,0.23 0.165,0.24C0.178,0.249 0.192,0.256 0.208,0.26C0.224,0.264 0.24,0.266 0.255,0.266C0.279,0.266 0.301,0.262 0.321,0.255C0.34,0.248 0.357,0.238 0.372,0.226C0.386,0.213 0.397,0.199 0.405,0.183C0.412,0.167 0.416,0.15 0.416,0.133C0.416,0.096 0.406,0.069 0.386,0.054C0.365,0.038 0.337,0.03 0.302,0.03L0.194,0.03ZM0.356,-0.295C0.356,-0.31 0.355,-0.326 0.353,-0.342C0.351,-0.357 0.347,-0.372 0.341,-0.385C0.334,-0.398 0.325,-0.408 0.312,-0.416C0.299,-0.424 0.281,-0.428 0.259,-0.428C0.225,-0.428 0.199,-0.418 0.182,-0.397C0.165,-0.376 0.156,-0.342 0.156,-0.295C0.156,-0.275 0.158,-0.257 0.161,-0.241C0.164,-0.225 0.169,-0.211 0.177,-0.2C0.185,-0.188 0.196,-0.179 0.209,-0.173C0.222,-0.167 0.239,-0.164 0.26,-0.164C0.295,-0.164 0.319,-0.175 0.334,-0.197C0.349,-0.218 0.356,-0.251 0.356,-0.295ZM0.044,-0.065C0.044,-0.083 0.047,-0.098 0.054,-0.112C0.061,-0.125 0.069,-0.136 0.079,-0.146C0.088,-0.155 0.098,-0.163 0.11,-0.169C0.121,-0.175 0.13,-0.18 0.139,-0.184C0.1,-0.211 0.081,-0.247 0.081,-0.292C0.081,-0.315 0.087,-0.336 0.098,-0.355C0.109,-0.374 0.124,-0.39 0.141,-0.403C0.158,-0.416 0.178,-0.425 0.199,-0.432C0.22,-0.439 0.24,-0.442 0.259,-0.442C0.289,-0.442 0.315,-0.436 0.337,-0.424C0.358,-0.412 0.374,-0.401 0.384,-0.391C0.391,-0.404 0.402,-0.415 0.417,-0.426C0.431,-0.437 0.449,-0.442 0.47,-0.442C0.483,-0.442 0.496,-0.439 0.507,-0.434C0.518,-0.428 0.524,-0.416 0.524,-0.397C0.524,-0.385 0.52,-0.376 0.513,-0.37C0.505,-0.364 0.497,-0.361 0.489,-0.361C0.48,-0.361 0.473,-0.364 0.469,-0.369C0.465,-0.374 0.462,-0.38 0.459,-0.386C0.456,-0.392 0.452,-0.398 0.449,-0.403C0.446,-0.408 0.441,-0.411 0.434,-0.411C0.427,-0.411 0.421,-0.408 0.414,-0.403C0.407,-0.397 0.4,-0.39 0.395,-0.383C0.401,-0.376 0.409,-0.365 0.418,-0.349C0.427,-0.333 0.432,-0.313 0.432,-0.289C0.432,-0.269 0.427,-0.251 0.417,-0.234C0.407,-0.217 0.394,-0.203 0.378,-0.19C0.361,-0.177 0.342,-0.168 0.321,-0.161C0.299,-0.154 0.277,-0.15 0.254,-0.15C0.231,-0.15 0.21,-0.153 0.193,-0.16C0.176,-0.166 0.162,-0.171 0.153,-0.176C0.146,-0.173 0.138,-0.169 0.13,-0.165C0.121,-0.161 0.114,-0.156 0.107,-0.15C0.099,-0.144 0.094,-0.137 0.089,-0.129C0.084,-0.12 0.082,-0.111 0.082,-0.1C0.082,-0.09 0.084,-0.082 0.088,-0.075C0.092,-0.068 0.097,-0.063 0.104,-0.06C0.11,-0.057 0.117,-0.054 0.125,-0.053C0.133,-0.052 0.141,-0.051 0.15,-0.051L0.308,-0.051C0.355,-0.051 0.392,-0.04 0.42,-0.018C0.447,0.005 0.461,0.04 0.461,0.088C0.461,0.117 0.455,0.144 0.442,0.168C0.429,0.192 0.413,0.213 0.392,0.231C0.371,0.248 0.346,0.262 0.319,0.272C0.292,0.281 0.264,0.286 0.235,0.286C0.209,0.286 0.185,0.283 0.164,0.277C0.142,0.271 0.123,0.263 0.107,0.253C0.091,0.242 0.079,0.23 0.07,0.215C0.061,0.2 0.056,0.184 0.056,0.166C0.056,0.149 0.059,0.133 0.067,0.119C0.074,0.104 0.083,0.092 0.094,0.081C0.105,0.07 0.117,0.06 0.131,0.052C0.145,0.044 0.159,0.037 0.173,0.032L0.173,0.03C0.129,0.03 0.096,0.023 0.076,0.009C0.054,-0.006 0.044,-0.03 0.044,-0.065Z" style="fill:rgb(255,214,0);fill-rule:nonzero;"/>
    </g>
    <g transform="matrix(64,0,0,64,136.064,46.72)">
        <path d="M0.145,-0.214C0.145,-0.167 0.149,-0.129 0.156,-0.101C0.163,-0.073 0.173,-0.051 0.185,-0.037C0.197,-0.022 0.211,-0.012 0.227,-0.007C0.243,-0.002 0.26,-0 0.278,-0C0.296,-0 0.313,-0.002 0.329,-0.007C0.345,-0.012 0.359,-0.022 0.371,-0.037C0.383,-0.051 0.393,-0.073 0.4,-0.101C0.407,-0.129 0.411,-0.167 0.411,-0.214C0.411,-0.254 0.408,-0.288 0.403,-0.315C0.398,-0.341 0.39,-0.364 0.379,-0.381C0.368,-0.398 0.354,-0.41 0.337,-0.417C0.32,-0.424 0.301,-0.428 0.278,-0.428C0.255,-0.428 0.236,-0.424 0.219,-0.417C0.202,-0.41 0.189,-0.398 0.178,-0.381C0.167,-0.364 0.158,-0.341 0.153,-0.315C0.148,-0.288 0.145,-0.254 0.145,-0.214ZM0.045,-0.214C0.045,-0.247 0.052,-0.277 0.067,-0.305C0.081,-0.333 0.099,-0.357 0.122,-0.378C0.144,-0.398 0.169,-0.414 0.197,-0.425C0.224,-0.436 0.251,-0.442 0.278,-0.442C0.305,-0.442 0.332,-0.436 0.36,-0.425C0.387,-0.414 0.412,-0.398 0.435,-0.378C0.457,-0.357 0.475,-0.333 0.49,-0.305C0.504,-0.277 0.511,-0.247 0.511,-0.214C0.511,-0.183 0.504,-0.153 0.491,-0.126C0.478,-0.098 0.46,-0.074 0.439,-0.053C0.417,-0.032 0.392,-0.016 0.364,-0.004C0.336,0.008 0.307,0.014 0.278,0.014C0.249,0.014 0.22,0.008 0.192,-0.004C0.164,-0.016 0.139,-0.032 0.118,-0.053C0.096,-0.074 0.078,-0.098 0.065,-0.126C0.052,-0.153 0.045,-0.183 0.045,-0.214Z" style="fill:rgb(255,214,0);fill-rule:nonzero;"/>
    </g>
    <g transform="matrix(64,0,0,64,170.688,46.72)">
        <path d="M-0.005,-0.429L0.24,-0.429L0.24,-0.415L0.156,-0.415L0.285,-0.101L0.42,-0.415L0.337,-0.415L0.337,-0.429L0.49,-0.429L0.49,-0.415L0.436,-0.415L0.271,-0.029C0.258,-0 0.246,0.029 0.235,0.058C0.224,0.087 0.212,0.116 0.201,0.145C0.192,0.169 0.182,0.19 0.173,0.208C0.164,0.226 0.154,0.241 0.144,0.252C0.133,0.263 0.122,0.272 0.11,0.278C0.098,0.283 0.084,0.286 0.068,0.286C0.049,0.286 0.033,0.283 0.022,0.277C0.01,0.271 0.001,0.264 -0.006,0.256C-0.013,0.248 -0.017,0.24 -0.019,0.231C-0.021,0.222 -0.022,0.215 -0.022,0.209C-0.022,0.192 -0.017,0.18 -0.008,0.172C0.001,0.163 0.013,0.159 0.026,0.159C0.031,0.159 0.036,0.16 0.041,0.161C0.046,0.162 0.051,0.163 0.056,0.166C0.061,0.169 0.065,0.172 0.068,0.177C0.071,0.182 0.073,0.187 0.073,0.194C0.073,0.203 0.07,0.212 0.065,0.221C0.059,0.229 0.056,0.238 0.056,0.248C0.056,0.257 0.058,0.262 0.063,0.265C0.068,0.268 0.074,0.269 0.082,0.269C0.093,0.269 0.102,0.267 0.112,0.262C0.121,0.257 0.129,0.248 0.138,0.237C0.147,0.226 0.155,0.211 0.164,0.193C0.173,0.174 0.182,0.152 0.193,0.125L0.237,0.013L0.064,-0.415L-0.005,-0.415L-0.005,-0.429Z" style="fill:rgb(255,214,0);fill-rule:nonzero;"/>
    </g>
    <g transform="matrix(64,0,0,64,201.472,46.72)">
        <path d="M0.028,-0.014L0.105,-0.014L0.105,-0.707L0.028,-0.707L0.028,-0.721L0.191,-0.721L0.191,-0.014L0.268,-0.014L0.268,-0L0.028,-0L0.028,-0.014Z" style="fill:rgb(255,214,0);fill-rule:nonzero;"/>
    </g>
    <g transform="matrix(64,0,0,64,220.416,46.72)">
        <path d="M0.352,-0.262C0.353,-0.271 0.354,-0.28 0.354,-0.288L0.354,-0.313C0.354,-0.336 0.352,-0.354 0.348,-0.369C0.343,-0.384 0.337,-0.395 0.33,-0.404C0.322,-0.413 0.313,-0.419 0.302,-0.423C0.291,-0.426 0.279,-0.428 0.266,-0.428C0.243,-0.428 0.225,-0.424 0.21,-0.415C0.195,-0.406 0.184,-0.393 0.175,-0.378C0.166,-0.363 0.16,-0.345 0.156,-0.325C0.151,-0.305 0.148,-0.284 0.147,-0.262L0.352,-0.262ZM0.146,-0.248L0.146,-0.228C0.145,-0.221 0.145,-0.212 0.145,-0.201C0.145,-0.179 0.146,-0.156 0.149,-0.132C0.152,-0.108 0.158,-0.086 0.167,-0.067C0.175,-0.048 0.189,-0.032 0.207,-0.019C0.224,-0.006 0.248,-0 0.277,-0C0.306,-0 0.331,-0.004 0.35,-0.013C0.369,-0.022 0.384,-0.032 0.395,-0.045C0.406,-0.057 0.414,-0.069 0.419,-0.082C0.424,-0.095 0.428,-0.105 0.431,-0.113L0.446,-0.11C0.444,-0.103 0.44,-0.092 0.435,-0.079C0.429,-0.065 0.42,-0.051 0.408,-0.038C0.395,-0.024 0.379,-0.012 0.358,-0.002C0.337,0.009 0.309,0.014 0.276,0.014C0.243,0.014 0.212,0.009 0.184,-0.002C0.155,-0.013 0.131,-0.028 0.11,-0.048C0.089,-0.068 0.073,-0.092 0.062,-0.12C0.051,-0.147 0.045,-0.178 0.045,-0.212C0.045,-0.241 0.051,-0.27 0.063,-0.298C0.074,-0.325 0.09,-0.35 0.111,-0.371C0.131,-0.392 0.155,-0.409 0.182,-0.423C0.209,-0.436 0.239,-0.442 0.27,-0.442C0.289,-0.442 0.309,-0.439 0.33,-0.432C0.351,-0.425 0.371,-0.415 0.39,-0.4C0.408,-0.385 0.423,-0.365 0.436,-0.34C0.448,-0.315 0.454,-0.285 0.454,-0.248L0.146,-0.248Z" style="fill:rgb(255,214,0);fill-rule:nonzero;"/>
    </g>
    <g transform="matrix(64,0,0,64,270.208,46.72)">
        <path d="M0.075,-0.215L0.086,-0.215C0.093,-0.179 0.103,-0.149 0.115,-0.124C0.126,-0.099 0.139,-0.079 0.153,-0.063C0.167,-0.047 0.182,-0.035 0.197,-0.026C0.212,-0.017 0.228,-0.011 0.244,-0.007C0.259,-0.003 0.274,-0.001 0.289,-0C0.303,0.001 0.316,0.001 0.329,0.001C0.364,0.001 0.393,-0.004 0.416,-0.015C0.439,-0.026 0.457,-0.039 0.47,-0.056C0.483,-0.072 0.493,-0.09 0.498,-0.109C0.503,-0.128 0.506,-0.145 0.506,-0.161C0.506,-0.184 0.502,-0.204 0.493,-0.221C0.484,-0.238 0.473,-0.252 0.46,-0.264C0.447,-0.275 0.432,-0.285 0.417,-0.292C0.401,-0.299 0.386,-0.305 0.372,-0.309L0.257,-0.344C0.203,-0.361 0.162,-0.383 0.135,-0.41C0.107,-0.437 0.093,-0.474 0.093,-0.52C0.093,-0.55 0.098,-0.578 0.109,-0.604C0.12,-0.629 0.135,-0.651 0.154,-0.67C0.173,-0.689 0.197,-0.703 0.224,-0.714C0.251,-0.725 0.28,-0.73 0.312,-0.73C0.335,-0.73 0.355,-0.728 0.371,-0.724C0.386,-0.72 0.4,-0.716 0.411,-0.711C0.422,-0.706 0.432,-0.701 0.442,-0.697C0.451,-0.693 0.46,-0.691 0.469,-0.691C0.478,-0.691 0.484,-0.692 0.487,-0.695C0.49,-0.697 0.494,-0.703 0.499,-0.712L0.513,-0.712L0.513,-0.531L0.501,-0.531C0.497,-0.555 0.49,-0.578 0.481,-0.601C0.471,-0.623 0.458,-0.643 0.443,-0.66C0.428,-0.677 0.409,-0.69 0.388,-0.701C0.366,-0.711 0.341,-0.716 0.312,-0.716C0.296,-0.716 0.278,-0.714 0.259,-0.71C0.24,-0.705 0.222,-0.698 0.205,-0.687C0.188,-0.676 0.174,-0.662 0.164,-0.645C0.153,-0.628 0.147,-0.606 0.147,-0.579C0.147,-0.558 0.151,-0.54 0.16,-0.525C0.169,-0.509 0.18,-0.497 0.194,-0.487C0.207,-0.476 0.223,-0.468 0.24,-0.461C0.257,-0.454 0.274,-0.447 0.291,-0.442L0.412,-0.404C0.425,-0.4 0.441,-0.395 0.46,-0.388C0.479,-0.381 0.498,-0.371 0.517,-0.358C0.535,-0.345 0.551,-0.327 0.564,-0.305C0.576,-0.283 0.583,-0.255 0.583,-0.221C0.583,-0.19 0.577,-0.16 0.566,-0.132C0.554,-0.103 0.537,-0.078 0.515,-0.057C0.493,-0.035 0.466,-0.018 0.435,-0.005C0.404,0.008 0.368,0.015 0.329,0.015L0.292,0.015C0.281,0.014 0.271,0.013 0.262,0.012C0.253,0.011 0.243,0.009 0.234,0.008C0.225,0.006 0.214,0.003 0.203,-0C0.19,-0.004 0.175,-0.009 0.16,-0.014C0.145,-0.019 0.131,-0.022 0.12,-0.022C0.11,-0.022 0.103,-0.02 0.1,-0.016C0.096,-0.012 0.093,-0.007 0.09,-0L0.075,-0L0.075,-0.215Z" style="fill:rgb(255,214,0);fill-rule:nonzero;"/>
    </g>
    <g transform="matrix(64,0,0,64,312.896,46.72)">
        <path d="M0.017,-0.429L0.094,-0.429L0.094,-0.558C0.099,-0.556 0.104,-0.554 0.109,-0.553C0.114,-0.552 0.122,-0.551 0.133,-0.551C0.143,-0.551 0.152,-0.552 0.159,-0.555C0.166,-0.557 0.173,-0.561 0.18,-0.566L0.18,-0.429L0.322,-0.429L0.322,-0.415L0.18,-0.415L0.18,-0.088C0.18,-0.069 0.182,-0.054 0.186,-0.043C0.189,-0.031 0.194,-0.022 0.2,-0.016C0.206,-0.009 0.213,-0.005 0.22,-0.003C0.227,-0.001 0.233,-0 0.24,-0C0.263,-0 0.282,-0.009 0.297,-0.026C0.311,-0.043 0.32,-0.062 0.324,-0.084L0.338,-0.079C0.336,-0.07 0.333,-0.061 0.329,-0.05C0.325,-0.039 0.319,-0.029 0.311,-0.02C0.302,-0.01 0.291,-0.002 0.278,0.005C0.265,0.011 0.248,0.014 0.228,0.014C0.178,0.014 0.143,0.004 0.124,-0.015C0.104,-0.034 0.094,-0.062 0.094,-0.097L0.094,-0.415L0.017,-0.415L0.017,-0.429Z" style="fill:rgb(255,214,0);fill-rule:nonzero;"/>
    </g>
    <g transform="matrix(64,0,0,64,334.208,46.72)">
        <path d="M0.569,-0L0.408,-0L0.408,-0.101L0.406,-0.101C0.4,-0.088 0.393,-0.074 0.385,-0.061C0.376,-0.047 0.366,-0.035 0.354,-0.024C0.341,-0.012 0.327,-0.004 0.311,0.004C0.294,0.011 0.275,0.014 0.253,0.014C0.226,0.014 0.205,0.011 0.188,0.005C0.171,-0.001 0.158,-0.007 0.149,-0.014C0.144,-0.017 0.139,-0.022 0.134,-0.027C0.128,-0.032 0.123,-0.038 0.118,-0.047C0.113,-0.056 0.109,-0.067 0.106,-0.081C0.103,-0.094 0.101,-0.111 0.101,-0.131L0.101,-0.415L0.024,-0.415L0.024,-0.429L0.187,-0.429L0.187,-0.122C0.187,-0.105 0.188,-0.089 0.191,-0.074C0.193,-0.059 0.197,-0.047 0.204,-0.036C0.211,-0.025 0.219,-0.016 0.23,-0.01C0.241,-0.003 0.255,-0 0.272,-0C0.287,-0 0.302,-0.004 0.318,-0.013C0.333,-0.022 0.347,-0.034 0.361,-0.05C0.374,-0.066 0.384,-0.085 0.393,-0.108C0.402,-0.13 0.406,-0.155 0.406,-0.183L0.406,-0.415L0.33,-0.415L0.33,-0.429L0.492,-0.429L0.492,-0.014L0.569,-0.014L0.569,-0Z" style="fill:rgb(255,214,0);fill-rule:nonzero;"/>
    </g>
    <g transform="matrix(64,0,0,64,372.16,46.72)">
        <path d="M0.152,-0.229C0.152,-0.194 0.153,-0.163 0.155,-0.135C0.157,-0.106 0.162,-0.082 0.17,-0.062C0.178,-0.042 0.19,-0.027 0.206,-0.016C0.222,-0.005 0.244,-0 0.271,-0C0.299,-0 0.322,-0.006 0.339,-0.018C0.356,-0.03 0.369,-0.046 0.378,-0.065C0.387,-0.084 0.394,-0.105 0.397,-0.128C0.4,-0.151 0.402,-0.174 0.402,-0.196C0.402,-0.222 0.402,-0.245 0.401,-0.264C0.4,-0.282 0.398,-0.299 0.395,-0.314C0.392,-0.329 0.389,-0.341 0.384,-0.352C0.379,-0.363 0.374,-0.373 0.367,-0.382C0.357,-0.395 0.344,-0.406 0.328,-0.415C0.312,-0.424 0.292,-0.428 0.267,-0.428C0.244,-0.428 0.225,-0.423 0.21,-0.414C0.195,-0.405 0.183,-0.391 0.175,-0.374C0.166,-0.357 0.16,-0.336 0.157,-0.312C0.154,-0.287 0.152,-0.26 0.152,-0.229ZM0.325,-0.721L0.488,-0.721L0.488,-0.014L0.565,-0.014L0.565,-0L0.404,-0L0.404,-0.087L0.402,-0.087C0.399,-0.079 0.395,-0.069 0.39,-0.058C0.385,-0.047 0.377,-0.036 0.367,-0.025C0.356,-0.014 0.343,-0.005 0.328,0.003C0.312,0.01 0.293,0.014 0.27,0.014C0.241,0.014 0.213,0.008 0.187,-0.005C0.16,-0.018 0.137,-0.035 0.117,-0.056C0.097,-0.077 0.081,-0.102 0.07,-0.13C0.058,-0.157 0.052,-0.186 0.052,-0.217C0.052,-0.247 0.058,-0.276 0.069,-0.303C0.08,-0.33 0.096,-0.354 0.115,-0.375C0.134,-0.395 0.157,-0.411 0.182,-0.424C0.207,-0.436 0.234,-0.442 0.263,-0.442C0.3,-0.442 0.329,-0.433 0.352,-0.415C0.375,-0.397 0.391,-0.375 0.4,-0.349L0.402,-0.349L0.402,-0.707L0.325,-0.707L0.325,-0.721Z" style="fill:rgb(255,214,0);fill-rule:nonzero;"/>
    </g>
    <g transform="matrix(64,0,0,64,410.112,46.72)">
        <path d="M0.093,-0.662C0.093,-0.677 0.098,-0.689 0.109,-0.7C0.119,-0.71 0.131,-0.715 0.146,-0.715C0.161,-0.715 0.173,-0.71 0.184,-0.7C0.194,-0.689 0.199,-0.677 0.199,-0.662C0.199,-0.647 0.194,-0.635 0.184,-0.625C0.173,-0.614 0.161,-0.609 0.146,-0.609C0.131,-0.609 0.119,-0.614 0.109,-0.625C0.098,-0.635 0.093,-0.647 0.093,-0.662ZM0.028,-0.014L0.105,-0.014L0.105,-0.415L0.028,-0.415L0.028,-0.429L0.191,-0.429L0.191,-0.014L0.268,-0.014L0.268,-0L0.028,-0L0.028,-0.014Z" style="fill:rgb(255,214,0);fill-rule:nonzero;"/>
    </g>
    <g transform="matrix(64,0,0,64,429.056,46.72)">
        <path d="M0.145,-0.214C0.145,-0.167 0.149,-0.129 0.156,-0.101C0.163,-0.073 0.173,-0.051 0.185,-0.037C0.197,-0.022 0.211,-0.012 0.227,-0.007C0.243,-0.002 0.26,-0 0.278,-0C0.296,-0 0.313,-0.002 0.329,-0.007C0.345,-0.012 0.359,-0.022 0.371,-0.037C0.383,-0.051 0.393,-0.073 0.4,-0.101C0.407,-0.129 0.411,-0.167 0.411,-0.214C0.411,-0.254 0.408,-0.288 0.403,-0.315C0.398,-0.341 0.39,-0.364 0.379,-0.381C0.368,-0.398 0.354,-0.41 0.337,-0.417C0.32,-0.424 0.301,-0.428 0.278,-0.428C0.255,-0.428 0.236,-0.424 0.219,-0.417C0.202,-0.41 0.189,-0.398 0.178,-0.381C0.167,-0.364 0.158,-0.341 0.153,-0.315C0.148,-0.288 0.145,-0.254 0.145,-0.214ZM0.045,-0.214C0.045,-0.247 0.052,-0.277 0.067,-0.305C0.081,-0.333 0.099,-0.357 0.122,-0.378C0.144,-0.398 0.169,-0.414 0.197,-0.425C0.224,-0.436 0.251,-0.442 0.278,-0.442C0.305,-0.442 0.332,-0.436 0.36,-0.425C0.387,-0.414 0.412,-0.398 0.435,-0.378C0.457,-0.357 0.475,-0.333 0.49,-0.305C0.504,-0.277 0.511,-0.247 0.511,-0.214C0.511,-0.183 0.504,-0.153 0.491,-0.126C0.478,-0.098 0.46,-0.074 0.439,-0.053C0.417,-0.032 0.392,-0.016 0.364,-0.004C0.336,0.008 0.307,0.014 0.278,0.014C0.249,0.014 0.22,0.008 0.192,-0.004C0.164,-0.016 0.139,-0.032 0.118,-0.053C0.096,-0.074 0.078,-0.098 0.065,-0.126C0.052,-0.153 0.045,-0.183 0.045,-0.214Z" style="fill:rgb(255,214,0);fill-rule:nonzero;"/>
    </g>
    <g transform="matrix(64,0,0,64,464.64,46.72)">
        <path d="M0.056,-0.14L0.067,-0.14C0.072,-0.124 0.078,-0.108 0.085,-0.092C0.092,-0.075 0.102,-0.06 0.115,-0.047C0.127,-0.033 0.142,-0.022 0.16,-0.013C0.178,-0.004 0.2,-0 0.225,-0C0.246,-0 0.265,-0.007 0.282,-0.02C0.299,-0.033 0.307,-0.054 0.307,-0.083C0.307,-0.108 0.301,-0.126 0.288,-0.137C0.275,-0.147 0.259,-0.155 0.242,-0.161L0.164,-0.188C0.154,-0.191 0.143,-0.196 0.132,-0.201C0.12,-0.206 0.109,-0.213 0.099,-0.222C0.089,-0.231 0.081,-0.242 0.075,-0.256C0.068,-0.27 0.065,-0.288 0.065,-0.31C0.065,-0.329 0.069,-0.346 0.076,-0.362C0.083,-0.378 0.093,-0.392 0.106,-0.404C0.119,-0.416 0.134,-0.425 0.152,-0.432C0.169,-0.439 0.188,-0.442 0.209,-0.442C0.224,-0.442 0.236,-0.441 0.245,-0.439C0.254,-0.436 0.261,-0.434 0.268,-0.432C0.275,-0.429 0.281,-0.427 0.286,-0.425C0.291,-0.422 0.298,-0.421 0.305,-0.421C0.312,-0.421 0.318,-0.424 0.321,-0.429L0.332,-0.429L0.332,-0.315L0.321,-0.315C0.316,-0.33 0.311,-0.344 0.305,-0.358C0.299,-0.371 0.292,-0.383 0.284,-0.394C0.275,-0.405 0.265,-0.413 0.253,-0.419C0.24,-0.425 0.226,-0.428 0.209,-0.428C0.177,-0.428 0.152,-0.421 0.135,-0.407C0.117,-0.392 0.108,-0.373 0.108,-0.349C0.108,-0.328 0.116,-0.312 0.131,-0.301C0.146,-0.29 0.168,-0.279 0.197,-0.27L0.27,-0.246C0.301,-0.235 0.327,-0.221 0.347,-0.202C0.367,-0.183 0.377,-0.159 0.377,-0.128C0.377,-0.11 0.374,-0.092 0.367,-0.075C0.36,-0.058 0.349,-0.043 0.336,-0.03C0.322,-0.017 0.305,-0.006 0.286,0.002C0.266,0.01 0.243,0.014 0.218,0.014C0.203,0.014 0.19,0.012 0.178,0.01C0.165,0.007 0.154,0.003 0.144,-0C0.133,-0.003 0.124,-0.007 0.115,-0.01C0.106,-0.012 0.098,-0.014 0.091,-0.014C0.084,-0.014 0.078,-0.012 0.075,-0.01C0.072,-0.007 0.069,-0.003 0.067,-0L0.056,-0L0.056,-0.14Z" style="fill:rgb(255,214,0);fill-rule:nonzero;"/>
    </g>
</svg>
