<?xml version="1.0" encoding="UTF-8" standalone="no"?>
<!DOCTYPE svg PUBLIC "-//W3C//DTD SVG 1.1//EN" "http://www.w3.org/Graphics/SVG/1.1/DTD/svg11.dtd">
<svg width="100%" height="100%" viewBox="0 0 24 24" version="1.1" xmlns="http://www.w3.org/2000/svg" xmlns:xlink="http://www.w3.org/1999/xlink" xml:space="preserve" xmlns:serif="http://www.serif.com/" style="fill-rule:evenodd;clip-rule:evenodd;stroke-linejoin:round;stroke-miterlimit:2;">
    <g transform="matrix(1,0,0,1,-3.59922,8.18936)">
        <g transform="matrix(20,0,0,20,2.05922,6.41064)">
            <path d="M0.774,-0.255L0.694,-0.255L0.694,-0.028L0.682,-0.028C0.675,-0.035 0.669,-0.04 0.664,-0.043C0.659,-0.046 0.652,-0.047 0.642,-0.047C0.63,-0.047 0.618,-0.044 0.606,-0.038C0.593,-0.031 0.579,-0.024 0.563,-0.016C0.546,-0.008 0.527,-0.001 0.505,0.006C0.483,0.012 0.456,0.015 0.425,0.015C0.378,0.015 0.336,0.007 0.299,-0.009C0.262,-0.024 0.227,-0.049 0.193,-0.083C0.16,-0.116 0.132,-0.156 0.11,-0.201C0.088,-0.246 0.077,-0.297 0.077,-0.354C0.077,-0.392 0.081,-0.426 0.09,-0.457C0.099,-0.487 0.109,-0.513 0.122,-0.536C0.134,-0.559 0.147,-0.578 0.16,-0.593C0.172,-0.608 0.183,-0.62 0.192,-0.629C0.222,-0.659 0.256,-0.683 0.295,-0.702C0.334,-0.721 0.378,-0.73 0.427,-0.73C0.452,-0.73 0.473,-0.728 0.49,-0.724C0.506,-0.72 0.52,-0.716 0.532,-0.711C0.544,-0.706 0.555,-0.701 0.565,-0.697C0.574,-0.693 0.585,-0.691 0.597,-0.691C0.61,-0.691 0.62,-0.693 0.626,-0.697C0.631,-0.7 0.637,-0.705 0.642,-0.712L0.657,-0.712L0.657,-0.512L0.646,-0.512C0.643,-0.529 0.638,-0.55 0.631,-0.573C0.623,-0.596 0.611,-0.619 0.595,-0.64C0.578,-0.661 0.557,-0.679 0.53,-0.694C0.502,-0.709 0.468,-0.716 0.426,-0.716C0.376,-0.716 0.336,-0.705 0.306,-0.685C0.275,-0.664 0.252,-0.636 0.235,-0.602C0.218,-0.567 0.206,-0.528 0.201,-0.485C0.195,-0.442 0.192,-0.398 0.192,-0.354C0.192,-0.324 0.193,-0.294 0.196,-0.264C0.199,-0.234 0.203,-0.206 0.21,-0.179C0.216,-0.152 0.225,-0.128 0.236,-0.105C0.247,-0.082 0.262,-0.063 0.28,-0.047C0.3,-0.029 0.321,-0.017 0.342,-0.01C0.363,-0.003 0.391,0.001 0.425,0.001C0.446,0.001 0.466,-0.003 0.487,-0.01C0.508,-0.017 0.526,-0.027 0.543,-0.041C0.559,-0.055 0.572,-0.073 0.583,-0.095C0.593,-0.116 0.598,-0.142 0.598,-0.171L0.598,-0.255L0.469,-0.255L0.469,-0.269L0.774,-0.269L0.774,-0.255Z" style="fill:rgb(255,214,0);fill-rule:nonzero;"/>
        </g>
    </g>
    <g transform="matrix(1,0,0,1,-1.68159,7.91817)">
        <g transform="matrix(20,0,0,20,14.0216,15.7818)">
            <path d="M0.075,-0.215L0.086,-0.215C0.093,-0.179 0.103,-0.149 0.115,-0.124C0.126,-0.099 0.139,-0.079 0.153,-0.063C0.167,-0.047 0.182,-0.035 0.197,-0.026C0.212,-0.017 0.228,-0.011 0.244,-0.007C0.259,-0.003 0.274,-0.001 0.289,-0C0.303,0.001 0.316,0.001 0.329,0.001C0.364,0.001 0.393,-0.004 0.416,-0.015C0.439,-0.026 0.457,-0.039 0.47,-0.056C0.483,-0.072 0.493,-0.09 0.498,-0.109C0.503,-0.128 0.506,-0.145 0.506,-0.161C0.506,-0.184 0.502,-0.204 0.493,-0.221C0.484,-0.238 0.473,-0.252 0.46,-0.264C0.447,-0.275 0.432,-0.285 0.417,-0.292C0.401,-0.299 0.386,-0.305 0.372,-0.309L0.257,-0.344C0.203,-0.361 0.162,-0.383 0.135,-0.41C0.107,-0.437 0.093,-0.474 0.093,-0.52C0.093,-0.55 0.098,-0.578 0.109,-0.604C0.12,-0.629 0.135,-0.651 0.154,-0.67C0.173,-0.689 0.197,-0.703 0.224,-0.714C0.251,-0.725 0.28,-0.73 0.312,-0.73C0.335,-0.73 0.355,-0.728 0.371,-0.724C0.386,-0.72 0.4,-0.716 0.411,-0.711C0.422,-0.706 0.432,-0.701 0.442,-0.697C0.451,-0.693 0.46,-0.691 0.469,-0.691C0.478,-0.691 0.484,-0.692 0.487,-0.695C0.49,-0.697 0.494,-0.703 0.499,-0.712L0.513,-0.712L0.513,-0.531L0.501,-0.531C0.497,-0.555 0.49,-0.578 0.481,-0.601C0.471,-0.623 0.458,-0.643 0.443,-0.66C0.428,-0.677 0.409,-0.69 0.388,-0.701C0.366,-0.711 0.341,-0.716 0.312,-0.716C0.296,-0.716 0.278,-0.714 0.259,-0.71C0.24,-0.705 0.222,-0.698 0.205,-0.687C0.188,-0.676 0.174,-0.662 0.164,-0.645C0.153,-0.628 0.147,-0.606 0.147,-0.579C0.147,-0.558 0.151,-0.54 0.16,-0.525C0.169,-0.509 0.18,-0.497 0.194,-0.487C0.207,-0.476 0.223,-0.468 0.24,-0.461C0.257,-0.454 0.274,-0.447 0.291,-0.442L0.412,-0.404C0.425,-0.4 0.441,-0.395 0.46,-0.388C0.479,-0.381 0.498,-0.371 0.517,-0.358C0.535,-0.345 0.551,-0.327 0.564,-0.305C0.576,-0.283 0.583,-0.255 0.583,-0.221C0.583,-0.19 0.577,-0.16 0.566,-0.132C0.554,-0.103 0.537,-0.078 0.515,-0.057C0.493,-0.035 0.466,-0.018 0.435,-0.005C0.404,0.008 0.368,0.015 0.329,0.015C0.315,0.015 0.303,0.015 0.292,0.015C0.281,0.014 0.271,0.013 0.262,0.012C0.253,0.011 0.243,0.009 0.234,0.008C0.225,0.006 0.214,0.003 0.203,-0C0.19,-0.004 0.175,-0.009 0.16,-0.014C0.145,-0.019 0.131,-0.022 0.12,-0.022C0.11,-0.022 0.103,-0.02 0.1,-0.016C0.096,-0.012 0.093,-0.007 0.09,-0L0.075,-0L0.075,-0.215Z" style="fill:rgb(199,187,119);fill-rule:nonzero;"/>
        </g>
    </g>
</svg>
